<?xml version="1.0" standalone="no"?>
<!DOCTYPE svg PUBLIC "-//W3C//DTD SVG 20010904//EN"
 "http://www.w3.org/TR/2001/REC-SVG-20010904/DTD/svg10.dtd">
<svg version="1.0" xmlns="http://www.w3.org/2000/svg"
 width="2880.000000pt" height="2768.000000pt" viewBox="0 0 2880.000000 2768.000000"
 preserveAspectRatio="xMidYMid meet">
<metadata>
Created by potrace 1.16, written by Peter Selinger 2001-2019
</metadata>
<g transform="translate(0.000000,2768.000000) scale(0.100000,-0.100000)"
fill="#ffffff" stroke="#ffffff" stroke-width="100">
<path d="M11330 22183 c-343 -26 -915 -108 -1285 -184 -864 -178 -1445 -418
-1930 -797 -955 -748 -1384 -1687 -1352 -2957 10 -354 51 -744 121 -1140 50
-286 87 -396 231 -695 57 -118 120 -260 140 -315 43 -119 98 -235 135 -290 50
-72 100 -113 210 -170 81 -42 131 -78 201 -141 108 -98 181 -149 253 -177 159
-60 331 -25 476 99 84 72 210 231 210 265 0 7 -36 45 -79 86 -134 124 -293
337 -533 713 -156 245 -272 489 -402 848 -179 494 -245 799 -265 1227 -41 852
264 1689 838 2300 463 492 1055 803 1724 907 191 29 591 32 767 5 365 -57 751
-188 950 -324 200 -136 323 -342 413 -693 151 -583 132 -1694 -49 -2835 -41
-260 -92 -543 -102 -567 -5 -12 -73 146 -213 490 l-206 507 -1752 3 -1751 2 0
-158 0 -159 263 -6 c295 -7 372 -16 539 -57 554 -139 866 -539 962 -1239 32
-226 36 -491 36 -2358 l0 -1871 -70 -47 c-146 -97 -356 -184 -618 -254 -229
-62 -314 -75 -502 -74 -280 1 -482 54 -921 241 -130 56 -270 115 -313 131
-219 88 -295 141 -526 366 -263 259 -336 307 -386 258 -96 -96 -58 -528 86
-998 101 -331 256 -619 403 -751 34 -30 94 -66 177 -105 291 -136 409 -205
592 -342 73 -55 160 -113 193 -128 120 -56 324 -79 697 -79 271 0 308 5 471
64 192 69 485 235 668 378 20 15 40 28 44 28 14 0 -3 -755 -20 -899 -89 -771
-458 -1340 -1013 -1562 -187 -75 -348 -107 -594 -116 l-168 -6 0 -169 0 -168
1968 2 1967 3 0 165 0 165 -85 7 c-261 20 -438 55 -622 122 -541 196 -898 606
-1053 1209 -72 282 -94 555 -95 1158 l0 336 86 104 c106 129 140 189 199 354
81 224 161 367 355 640 139 196 163 242 233 450 109 320 132 376 370 888 22
48 44 84 48 80 4 -4 32 -69 62 -143 30 -74 156 -385 280 -690 239 -589 972
-2395 1162 -2865 63 -154 269 -662 459 -1130 l345 -850 110 -1 c70 -1 114 3
120 10 4 6 611 1517 1347 3359 736 1841 1340 3347 1343 3347 4 0 21 -80 40
-177 80 -426 150 -623 357 -1000 183 -334 235 -459 310 -738 37 -139 63 -203
119 -295 l35 -58 0 -1258 c0 -776 -4 -1303 -10 -1374 -54 -607 -229 -990 -563
-1237 -70 -51 -234 -133 -327 -162 -191 -61 -283 -72 -650 -80 l-305 -6 -3
-161 c-2 -141 0 -162 14 -168 8 -3 1225 -5 2702 -3 l2687 2 0 165 0 165 -280
6 c-299 7 -403 19 -560 64 -578 168 -885 622 -955 1415 -10 116 -15 1290 -5
1290 3 0 22 -11 43 -24 64 -40 342 -182 462 -236 513 -231 1048 -389 1505
-446 217 -26 621 -19 913 17 168 20 220 60 155 121 -32 29 -73 51 -346 182
-253 121 -315 163 -416 279 -173 199 -486 451 -1201 966 -511 367 -509 366
-589 444 -90 88 -144 158 -350 452 l-181 258 0 1521 c0 945 4 1565 10 1636 72
818 389 1272 990 1420 164 41 251 50 548 57 l262 6 0 159 0 158 -1653 0 -1654
0 -109 -270 c-60 -148 -112 -266 -115 -262 -8 8 -51 258 -73 422 -91 680 -67
1329 75 2050 38 193 61 286 105 423 144 445 402 781 731 950 339 173 711 190
1171 51 123 -37 234 -88 447 -205 200 -109 306 -143 322 -103 24 63 -192 316
-376 443 -291 199 -643 294 -1101 295 -554 1 -1116 -145 -1497 -390 -594 -383
-1155 -1202 -1616 -2360 -114 -286 -152 -397 -207 -613 -99 -380 -165 -594
-253 -811 -122 -306 -208 -420 -314 -420 -61 0 -109 28 -181 105 -141 150
-217 373 -457 1340 -250 1005 -292 1126 -616 1780 -65 132 -150 296 -190 365
-399 701 -790 964 -1534 1035 -144 13 -532 18 -665 8z m1360 -3225 c46 -48
105 -177 225 -498 146 -390 307 -787 577 -1420 255 -598 494 -1186 610 -1500
206 -557 352 -1049 378 -1270 20 -168 42 -220 101 -235 24 -6 29 -1 62 62 83
160 124 281 312 938 160 560 202 724 370 1465 82 361 145 618 201 825 86 316
295 961 371 1145 106 258 172 260 237 4 29 -115 58 -298 121 -762 89 -657 182
-1275 286 -1893 32 -196 59 -365 59 -376 0 -11 -32 -98 -71 -194 -39 -96 -231
-570 -426 -1054 -446 -1102 -515 -1274 -718 -1775 -151 -374 -428 -1059 -612
-1513 -48 -118 -79 -184 -84 -175 -4 7 -52 123 -107 258 -55 135 -204 502
-332 815 -128 314 -263 644 -300 735 -37 91 -97 237 -133 325 -36 88 -135 331
-220 540 -270 662 -988 2422 -1181 2897 l-187 457 25 153 c35 216 41 258 91
678 104 879 185 1300 264 1379 29 29 43 26 81 -11z m-2440 -2033 c40 -99 252
-623 472 -1165 220 -542 427 -1052 460 -1134 l60 -148 -68 -177 c-137 -357
-252 -612 -378 -841 -120 -219 -180 -303 -275 -387 -47 -42 -144 -131 -214
-197 -70 -67 -132 -122 -137 -124 -7 -2 -10 797 -10 2184 0 1276 4 2184 9
2179 5 -6 41 -91 81 -190z"/>
<path d="M10825 7214 c-142 -28 -263 -113 -311 -218 -73 -160 -44 -317 83
-437 72 -68 161 -107 386 -168 248 -67 287 -88 307 -163 23 -85 -39 -179 -140
-213 -61 -20 -184 -23 -247 -6 -89 24 -156 99 -189 209 l-15 52 -37 -5 c-20
-3 -81 -9 -136 -15 -54 -5 -100 -10 -101 -12 -5 -5 21 -119 38 -165 41 -109
134 -215 229 -258 101 -46 173 -59 323 -59 164 0 244 17 347 71 82 43 139 103
182 193 29 61 31 72 31 180 0 104 -3 121 -27 172 -73 156 -161 210 -479 293
-257 68 -319 103 -319 182 0 65 35 104 119 129 77 23 221 16 278 -14 45 -23
88 -84 99 -140 6 -32 7 -32 68 -32 33 0 98 3 144 7 81 6 82 6 82 33 0 46 -37
153 -71 203 -86 131 -249 197 -479 196 -52 -1 -126 -7 -165 -15z"/>
<path d="M5270 6495 l0 -715 130 0 130 0 1 433 c1 237 1 486 1 551 -1 67 3
115 8 110 5 -5 65 -236 135 -514 69 -278 130 -522 136 -542 l10 -38 138 0 138
0 139 549 139 550 3 -550 2 -549 135 0 135 0 0 715 0 715 -215 0 -214 0 -14
-47 c-8 -27 -65 -245 -128 -485 -63 -241 -116 -438 -119 -438 -3 0 -59 204
-124 453 -66 248 -124 467 -128 485 l-9 32 -214 0 -215 0 0 -715z"/>
<path d="M7393 7173 c-11 -27 -432 -1107 -534 -1370 l-9 -23 153 0 152 0 56
158 56 157 290 3 290 2 58 -152 c32 -84 61 -156 65 -161 3 -4 75 -6 158 -5
l151 3 -285 710 c-156 390 -284 711 -284 712 0 2 -68 3 -151 3 l-150 0 -16
-37z m261 -564 c53 -140 96 -259 96 -262 0 -4 -88 -7 -196 -7 -183 0 -196 1
-189 18 4 9 42 116 86 237 91 251 101 277 104 273 2 -2 46 -118 99 -259z"/>
<path d="M8498 7204 c-5 -4 -8 -326 -8 -716 l0 -708 145 0 145 0 0 269 0 269
228 4 c196 5 236 8 293 27 204 65 313 258 280 495 -25 178 -143 311 -307 347
-59 12 -766 25 -776 13z m668 -259 c133 -55 168 -215 69 -319 -50 -51 -84 -59
-277 -64 l-178 -4 0 207 0 208 173 -6 c128 -4 184 -9 213 -22z"/>
<path d="M9880 6505 c0 -388 -1 -708 -2 -712 -2 -5 61 -9 140 -11 l142 -3 0
716 0 715 -140 0 -140 0 0 -705z"/>
<path d="M11888 6495 l-3 -715 143 0 142 0 0 310 0 310 285 0 285 0 0 -310 0
-310 145 0 145 0 -2 713 -3 712 -142 3 -143 3 0 -286 0 -285 -285 0 -285 0 0
285 0 285 -140 0 -140 0 -2 -715z"/>
<path d="M13380 6495 l0 -715 140 0 140 0 0 715 0 715 -140 0 -140 0 0 -715z"/>
<path d="M14607 7204 c-4 -4 -7 -326 -7 -716 l0 -708 135 0 135 0 1 558 1 557
140 -558 141 -558 140 3 141 3 132 530 c73 291 138 539 143 550 6 13 10 -166
10 -532 l1 -553 130 0 130 0 0 715 0 715 -213 0 -214 0 -21 -77 c-12 -43 -69
-260 -127 -483 -58 -222 -108 -406 -110 -408 -4 -5 -19 48 -119 428 -47 179
-98 372 -114 430 l-28 105 -210 3 c-116 1 -213 -1 -217 -4z"/>
<path d="M16712 7133 c-17 -43 -108 -276 -202 -518 -212 -543 -320 -823 -320
-830 0 -3 67 -5 149 -5 l149 0 37 101 c20 56 46 128 57 160 l20 59 290 -2 291
-3 60 -157 60 -158 153 0 c85 0 154 3 154 8 0 4 -127 324 -283 712 l-283 705
-151 3 -151 3 -30 -78z m198 -305 c0 -5 38 -112 85 -238 47 -126 85 -234 85
-240 0 -12 -380 -15 -380 -2 0 4 41 123 92 265 79 219 95 255 106 240 6 -9 12
-21 12 -25z"/>
<path d="M17837 7203 c-4 -3 -7 -325 -7 -715 l0 -708 145 0 145 0 0 217 0 216
118 119 117 118 139 -237 c77 -131 164 -282 195 -335 l56 -97 183 -1 c100 0
182 3 182 8 0 4 -61 99 -135 212 -300 460 -415 639 -415 648 0 6 116 130 258
277 141 147 259 271 260 276 2 5 -73 9 -181 9 -162 0 -187 -2 -204 -17 -11
-10 -143 -153 -294 -317 l-274 -300 -3 317 -2 317 -138 0 c-76 0 -142 -3 -145
-7z"/>
<path d="M19330 6495 l0 -715 540 0 540 0 0 120 0 120 -397 2 -398 3 0 190 0
190 358 3 357 2 0 120 0 120 -357 2 -358 3 0 155 0 155 388 3 388 2 -3 118 -3
117 -527 3 -528 2 0 -715z"/>
<path d="M20723 6678 c4 -570 5 -588 56 -687 32 -62 116 -142 181 -174 93 -45
171 -59 325 -60 201 -1 296 23 403 105 63 47 104 108 134 198 22 63 22 82 26
608 l3 542 -140 0 -141 0 0 -452 c0 -249 -5 -491 -10 -538 -12 -104 -41 -151
-115 -189 -44 -23 -61 -26 -155 -26 -88 1 -112 4 -146 22 -52 28 -109 91 -125
140 -9 28 -14 173 -16 541 l-4 502 -140 0 -140 0 4 -532z"/>
<path d="M22220 6495 l0 -715 140 0 140 0 0 270 0 270 183 0 c227 1 313 11
394 49 71 34 151 108 182 169 32 63 51 149 51 232 0 139 -42 242 -132 325
-107 100 -194 114 -680 115 l-278 0 0 -715z m586 466 c124 -15 188 -63 205
-158 12 -61 -10 -139 -48 -175 -55 -53 -93 -62 -285 -66 l-178 -4 0 199 c0
110 3 203 7 206 9 10 213 8 299 -2z"/>
</g>
</svg>
